<svg width="25" height="25" viewBox="0 0 25 25" fill="none" xmlns="http://www.w3.org/2000/svg">
<mask id="mask0_24_28" style="mask-type:alpha" maskUnits="userSpaceOnUse" x="0" y="0" width="25" height="25">
<rect x="0.422119" y="0.00540161" width="24" height="24" fill="#D9D9D9"/>
</mask>
<g mask="url(#mask0_24_28)">
<path d="M16.6722 7.80921L7.36446 17.1227C7.21575 17.2714 7.03915 17.3458 6.83466 17.3458C6.63018 17.3458 6.45358 17.2714 6.30486 17.1227C6.15615 16.974 6.08179 16.7974 6.08179 16.5929C6.08179 16.3884 6.15615 16.2118 6.30486 16.0631L15.6184 6.75538H7.42216C7.20966 6.75538 7.03155 6.68348 6.88781 6.53968C6.74406 6.39587 6.67219 6.21767 6.67219 6.00508C6.67219 5.79248 6.74406 5.61439 6.88781 5.47081C7.03155 5.32722 7.20966 5.25543 7.42216 5.25543H17.2683C17.5244 5.25543 17.7391 5.34205 17.9123 5.51528C18.0855 5.68852 18.1721 5.90317 18.1721 6.15926V16.0054C18.1721 16.2179 18.1002 16.396 17.9564 16.5398C17.8126 16.6835 17.6344 16.7554 17.4218 16.7554C17.2092 16.7554 17.0311 16.6835 16.8876 16.5398C16.744 16.396 16.6722 16.2179 16.6722 16.0054V7.80921Z" fill="#1C1B1F"/>
</g>
</svg>
