<svg width="48" height="48" viewBox="0 0 48 48" fill="none" xmlns="http://www.w3.org/2000/svg">
<path d="M26.2 46C23.4 46 20.775 45.4667 18.325 44.4C15.875 43.3333 13.7417 41.8917 11.925 40.075C10.1083 38.2583 8.66667 36.125 7.6 33.675C6.53333 31.225 6 28.6 6 25.8C6 20.9333 7.55 16.6417 10.65 12.925C13.75 9.20833 17.7 6.9 22.5 6C21.9 9.26667 22.0833 12.475 23.05 15.625C24.0167 18.775 25.6833 21.5333 28.05 23.9C30.4167 26.2667 33.175 27.9417 36.325 28.925C39.475 29.9083 42.7 30.1 46 29.5C45.1333 34.3 42.8333 38.25 39.1 41.35C35.3667 44.45 31.0667 46 26.2 46Z" fill="white"/>
</svg>
